<svg width="8" height="14" viewBox="0 0 8 14" fill="none" xmlns="http://www.w3.org/2000/svg">
<path d="M3.1125 7.00012L7.5375 2.57512C7.77031 2.34092 7.90099 2.0241 7.90099 1.69387C7.90099 1.36364 7.77031 1.04682 7.5375 0.812619C7.4213 0.695458 7.28304 0.602465 7.13072 0.539004C6.9784 0.475544 6.81501 0.442871 6.65 0.442871C6.48498 0.442871 6.3216 0.475544 6.16928 0.539004C6.01695 0.602465 5.8787 0.695458 5.7625 0.812619L0.4625 6.11262C0.34534 6.22882 0.252347 6.36707 0.188886 6.5194C0.125426 6.67172 0.0927525 6.8351 0.0927525 7.00012C0.0927525 7.16513 0.125426 7.32852 0.188886 7.48084C0.252347 7.63316 0.34534 7.77141 0.4625 7.88762L5.7625 13.2501C5.8793 13.366 6.01782 13.4576 6.17012 13.5198C6.32241 13.582 6.48549 13.6136 6.65 13.6126C6.81451 13.6136 6.97758 13.582 7.12988 13.5198C7.28218 13.4576 7.4207 13.366 7.5375 13.2501C7.77031 13.0159 7.90099 12.6991 7.90099 12.3689C7.90099 12.0386 7.77031 11.7218 7.5375 11.4876L3.1125 7.00012Z" fill="white"/>
</svg>
